<svg xmlns="http://www.w3.org/2000/svg" fill="none" height="66" viewBox="0 0 349 66" width="349"><g fill="#fff"><path d="m42.9243 63.4297v-9.0816c0-1.7406-1.4105-3.1514-3.1513-3.1514h-.2294c.6088-1.4965 3.2823-7.7096 8.1263-14.076-6.5143-9.8512-9.9036-17.4775-11.5012-28.81084h-1.5274v25.54454c1.1855.6005 2.0002 1.8275 1.9994 3.2469.0008 2.0109-1.6298 3.641-3.6407 3.641s-3.6415-1.6301-3.641-3.641c0-1.4194.8142-2.6464 1.9997-3.2469v-25.54454h-1.5276c-1.5974 11.33334-4.9867 18.95994-11.501 28.81054 4.844 6.3667 7.517 12.5798 8.1255 14.0763h-.2799c-1.7408 0-3.1522 1.4108-3.1522 3.1514v9.0646c-12.7873-4.1921-22.0235-16.2224-22.0235-30.4114 0-17.6731 14.3272-32.00005 32-32.00005s31.9995 14.32695 32 32.00005c-.0005 14.2082-9.261 26.2515-22.0757 30.4284z"></path><path d="m90.64 50.5c-2.368-.064-4.048-.096-5.04-.096l-7.056.096-2.016.048-.048-.576c2.496-.768 4-2.352 4.512-4.752.288-1.056.464-2.576.528-4.56.064-2.016.096-4.432.096-7.248 0-4.288-.08-7.472-.24-9.552-.096-1.184-.304-2.144-.624-2.88-.32-.768-.784-1.44-1.392-2.016-.512-.48-1.072-.832-1.68-1.056-.608-.256-1.184-.416-1.728-.48l.048-.576c1.184.064 2.56.112 4.128.144h4.416l4.176-.048c2.176-.064 3.776-.096 4.8-.096 2.624 0 4.768.16 6.432.48 1.696.288 3.136.832 4.32 1.632 1.056.736 1.84 1.552 2.352 2.448s.768 1.968.768 3.216c0 2.08-.816 3.808-2.448 5.184-1.536 1.312-3.488 2.24-5.856 2.784 2.88.288 5.168 1.024 6.864 2.208.992.64 1.76 1.456 2.304 2.448.576.992.864 2.144.864 3.456 0 1.568-.352 2.992-1.056 4.272-.704 1.248-1.696 2.272-2.976 3.072-2.592 1.696-6.048 2.544-10.368 2.544zm2.976-18.048c1.44 0 2.56-.128 3.36-.384.544-.64.944-1.456 1.2-2.448.288-.992.432-2.096.432-3.312 0-1.376-.288-2.72-.864-4.032-.576-1.344-1.408-2.4-2.496-3.168-.8-.544-1.664-.88-2.592-1.008-.64 0-1.264.096-1.872.288-.128.64-.256 1.712-.384 3.216-.16 2.72-.24 6.24-.24 10.56 1.152.192 2.304.288 3.456.288zm.912 16.8c.608-.16 1.2-.416 1.776-.768.608-.384 1.104-.848 1.488-1.392.544-.704.96-1.536 1.248-2.496.32-.992.48-2.032.48-3.12 0-1.056-.144-2.032-.432-2.928-.288-.928-.704-1.728-1.248-2.4-.544-.608-1.184-1.104-1.92-1.488-.704-.384-1.456-.64-2.256-.768-.928 0-2.096-.032-3.504-.096v4.224c0 3.168.112 5.536.336 7.104.16 1.12.528 2.032 1.104 2.736.32.416.752.752 1.296 1.008.544.224 1.088.352 1.632.384zm25.751-10.464c0 1.696.272 3.152.816 4.368.576 1.184 1.36 2.08 2.352 2.688 1.024.608 2.192.912 3.504.912 2.4 0 4.608-1.12 6.624-3.36l.528.384c-1.184 2.016-2.704 3.728-4.56 5.136s-4.016 2.112-6.48 2.112c-3.008 0-5.52-.736-7.536-2.208-1.344-.96-2.4-2.24-3.168-3.84-.768-1.632-1.152-3.52-1.152-5.664 0-2.048.496-3.952 1.488-5.712 1.024-1.76 2.432-3.168 4.224-4.224s3.824-1.584 6.096-1.584c2.048 0 3.808.4 5.28 1.2s2.656 1.84 3.552 3.12 1.536 2.688 1.92 4.224c.128.512.192.88.192 1.104s-.08.416-.24.576l-13.44.288zm2.736-9.984c-.8.608-1.44 1.632-1.92 3.072-.448 1.408-.704 3.2-.768 5.376.96 0 1.936-.016 2.928-.048.992-.064 1.888-.144 2.688-.24-.128-2.08-.448-3.888-.96-5.424-.48-1.536-1.136-2.448-1.968-2.736zm12.961 13.44c1.088 1.76 2.496 3.36 4.224 4.8 1.76 1.408 3.472 2.384 5.136 2.928.672-.192 1.216-.528 1.632-1.008.448-.512.672-1.104.672-1.776s-.224-1.248-.672-1.728c-.32-.384-.784-.752-1.392-1.104-.576-.384-1.312-.784-2.208-1.2-1.152-.544-2.176-1.072-3.072-1.584s-1.648-1.04-2.256-1.584c-.704-.64-1.232-1.36-1.584-2.16s-.528-1.728-.528-2.784c0-1.12.24-2.128.72-3.024s1.152-1.664 2.016-2.304c1.76-1.344 4.144-2.016 7.152-2.016 1.536 0 2.976.128 4.32.384 1.376.224 2.56.512 3.552.864.096.48.16 1.216.192 2.208.064.96.112 1.6.144 1.92 0 1.152.048 2.16.144 3.024l-.576.096c-1.248-1.856-2.656-3.456-4.224-4.8-1.568-1.376-3.04-2.288-4.416-2.736-.544.224-1.008.608-1.392 1.152-.352.544-.528 1.152-.528 1.824 0 .608.112 1.12.336 1.536.256.416.656.832 1.2 1.248.32.288.832.624 1.536 1.008.704.352 1.424.688 2.16 1.008 1.184.576 2.16 1.088 2.928 1.536s1.424.944 1.968 1.488c1.088 1.088 1.632 2.512 1.632 4.272 0 1.056-.224 2.032-.672 2.928-.416.896-1.024 1.648-1.824 2.256-.896.672-2 1.2-3.312 1.584-1.28.352-2.72.528-4.32.528-1.664 0-3.216-.112-4.656-.336s-2.624-.544-3.552-.96c-.16-.416-.304-1.136-.432-2.16s-.256-2.08-.384-3.168c-.064-.96-.128-1.648-.192-2.064zm27.785 8.832c-1.696 0-3.008-.512-3.936-1.536-1.024-1.12-1.536-2.912-1.536-5.376 0-1.152.016-2.112.048-2.88l.048-4.08c0-2.24-.016-4-.048-5.28-1.184 0-2.352.032-3.504.096l-.096-.576c1.12-.576 2.224-1.264 3.312-2.064 1.12-.832 2.112-1.68 2.976-2.544 1.76-1.728 3.424-3.76 4.992-6.096l.72.144c-.128 2.304-.192 4.592-.192 6.864v.624c3.872 0 6.208-.016 7.008-.048 0 1.024-.128 2.24-.384 3.648-.96-.032-3.152-.048-6.576-.048v5.808c0 3.168.096 5.296.288 6.384.128.832.4 1.456.816 1.872.448.416.992.624 1.632.624.608 0 1.216-.144 1.824-.432.64-.32 1.2-.72 1.68-1.2l.624.576c-.64.768-1.36 1.52-2.16 2.256-.8.704-1.616 1.296-2.448 1.776-.8.48-1.616.848-2.448 1.104s-1.712.384-2.64.384zm31.131.336c-.288-.864-.752-2.048-1.392-3.552-.608-1.504-1.072-2.672-1.392-3.504l-1.392-3.36c-3.52-8.928-6.16-15.056-7.92-18.384-.672-1.28-1.424-2.384-2.256-3.312s-1.696-1.536-2.592-1.824l.048-.624c1.088 0 1.984.016 2.688.048l4.896.048c2.144 0 5.008-.032 8.592-.096l.096.576c-.64.288-1.184.72-1.632 1.296-.448.544-.688 1.184-.72 1.92.032.512.112 1.056.24 1.632.16.576.416 1.344.768 2.304.448 1.344 1.008 2.816 1.68 4.416.128.416.352 1.008.672 1.776 1.536 3.936 2.656 7.072 3.36 9.408h.144l2.304-5.52c1.088-2.656 1.776-4.848 2.064-6.576-.704-1.792-1.536-3.728-2.496-5.808-.64-1.28-1.264-2.304-1.872-3.072-.608-.8-1.312-1.376-2.112-1.728l.096-.624c.832.032 1.92.064 3.264.096h4.176c1.728 0 3.072-.016 4.032-.048l4.368-.048.048.576c-.8.288-1.488.72-2.064 1.296-.544.544-.848 1.184-.912 1.92 0 .576.064 1.152.192 1.728.16.576.416 1.344.768 2.304.48 1.344 1.296 3.456 2.448 6.336 1.376 3.52 2.496 6.608 3.36 9.264h.144l2.16-5.28c.8-1.984 1.408-3.904 1.824-5.76.416-1.888.624-3.552.624-4.992 0-.928-.128-1.792-.384-2.592-.256-.832-.592-1.536-1.008-2.112-.32-.448-.736-.848-1.248-1.2-.48-.384-.992-.688-1.536-.912l.048-.576c2.56.064 5.184.096 7.872.096h3.696c1.28-.032 2.336-.064 3.168-.096l.048.576c-.864.416-1.648.944-2.352 1.584-.896.768-1.84 1.888-2.832 3.36-1.728 2.56-3.872 6.928-6.432 13.104l-3.12 7.44-1.392 3.408c-.288.736-.608 1.536-.96 2.4-.352.832-.704 1.712-1.056 2.64l-1.056.048c-.192-.48-1.2-3.008-3.024-7.584l-1.152-2.832-4.224-10.368c-.512 1.44-1.104 2.992-1.776 4.656l-3.072 7.488c-1.6 3.872-2.736 6.736-3.408 8.592zm30.441-1.392c.384-.096.768-.288 1.152-.576.416-.32.72-.672.912-1.056.32-.608.56-1.472.72-2.592s.24-2.624.24-4.512c0-3.488-.192-5.872-.576-7.152-.16-.544-.416-.944-.768-1.2-.32-.288-.688-.432-1.104-.432l-.672.048-.096-.528c2.464-1.056 4.16-1.84 5.088-2.352 1.216-.672 2.352-1.264 3.408-1.776 1.088-.512 1.824-.768 2.208-.768.096 0 .192.032.288.096.128.064.208.144.24.24.096.32.144.944.144 1.872.032.928.048 1.824.048 2.688v3.12c.416-1.056.912-2.112 1.488-3.168s1.184-1.952 1.824-2.688c.48-.608.96-1.056 1.44-1.344s.992-.432 1.536-.432c.736 0 1.408.272 2.016.816s1.072 1.264 1.392 2.16c.352.864.528 1.744.528 2.64 0 .8-.256 1.456-.768 1.968-.48.512-1.104.768-1.872.768-.416 0-.896-.048-1.44-.144-.544-.128-1.088-.272-1.632-.432-.48-.128-.96-.24-1.44-.336s-.88-.144-1.2-.144c-.256 0-.432.016-.528.048-.384.416-.704 1.024-.96 1.824-.256.768-.384 1.712-.384 2.832v1.104c0 1.6.048 2.928.144 3.984s.304 1.968.624 2.736c.256.64.704 1.2 1.344 1.68s1.472.8 2.496.96l-.048.576-4.272-.048c-2.176-.064-3.68-.096-4.512-.096-1.024 0-2.56.032-4.608.096l-2.352.048zm25.338-24.432c-.48-.608-.88-1.312-1.2-2.112-.32-.832-.48-1.712-.48-2.64 0-.864.224-1.664.672-2.4.448-.768 1.072-1.376 1.872-1.824.8-.48 1.696-.72 2.688-.72 1.12 0 2.032.352 2.736 1.056.736.672 1.104 1.536 1.104 2.592 0 .992-.272 1.808-.816 2.448s-1.328 1.232-2.352 1.776c-1.76.864-3.024 1.504-3.792 1.92zm-4.128 24.432c.992-.416 1.68-1.04 2.064-1.872.64-1.376.96-3.84.96-7.392 0-3.808-.256-6.176-.768-7.104-.192-.384-.432-.672-.72-.864s-.592-.288-.912-.288-.544.016-.672.048l-.144-.528c2.016-.832 3.856-1.68 5.52-2.544 1.12-.64 2.176-1.184 3.168-1.632.992-.48 1.664-.72 2.016-.72.128 0 .24.048.336.144.128.096.208.208.24.336.128.864.192 2.192.192 3.984 0 .96-.016 1.76-.048 2.4l-.048 4.128v2.928c0 1.376.048 2.56.144 3.552.096.96.272 1.776.528 2.448.48 1.568 1.344 2.56 2.592 2.976l-.048.528-3.12-.048c-2.048-.064-3.52-.096-4.416-.096-1.28 0-2.88.032-4.8.096-.608.032-1.28.048-2.016.048zm22.292 1.056c-1.696 0-3.008-.512-3.936-1.536-1.024-1.12-1.536-2.912-1.536-5.376 0-1.152.016-2.112.048-2.88l.048-4.08c0-2.24-.016-4-.048-5.28-1.184 0-2.352.032-3.504.096l-.096-.576c1.12-.576 2.224-1.264 3.312-2.064 1.12-.832 2.112-1.68 2.976-2.544 1.76-1.728 3.424-3.76 4.992-6.096l.72.144c-.128 2.304-.192 4.592-.192 6.864v.624c3.872 0 6.208-.016 7.008-.048 0 1.024-.128 2.24-.384 3.648-.96-.032-3.152-.048-6.576-.048v5.808c0 3.168.096 5.296.288 6.384.128.832.4 1.456.816 1.872.448.416.992.624 1.632.624.608 0 1.216-.144 1.824-.432.64-.32 1.2-.72 1.68-1.2l.624.576c-.64.768-1.36 1.52-2.16 2.256-.8.704-1.616 1.296-2.448 1.776-.8.48-1.616.848-2.448 1.104s-1.712.384-2.64.384zm13.986-25.488c-.48-.608-.88-1.312-1.2-2.112-.32-.832-.48-1.712-.48-2.64 0-.864.224-1.664.672-2.4.448-.768 1.072-1.376 1.872-1.824.8-.48 1.696-.72 2.688-.72 1.12 0 2.032.352 2.736 1.056.736.672 1.104 1.536 1.104 2.592 0 .992-.272 1.808-.816 2.448s-1.328 1.232-2.352 1.776c-1.76.864-3.024 1.504-3.792 1.92zm-4.128 24.432c.992-.416 1.68-1.04 2.064-1.872.64-1.376.96-3.84.96-7.392 0-3.808-.256-6.176-.768-7.104-.192-.384-.432-.672-.72-.864s-.592-.288-.912-.288-.544.016-.672.048l-.144-.528c2.016-.832 3.856-1.68 5.52-2.544 1.12-.64 2.176-1.184 3.168-1.632.992-.48 1.664-.72 2.016-.72.128 0 .24.048.336.144.128.096.208.208.24.336.128.864.192 2.192.192 3.984 0 .96-.016 1.76-.048 2.4l-.048 4.128v2.928c0 1.376.048 2.56.144 3.552.096.96.272 1.776.528 2.448.48 1.568 1.344 2.56 2.592 2.976l-.048.528-3.12-.048c-2.048-.064-3.52-.096-4.416-.096-1.28 0-2.88.032-4.8.096-.608.032-1.28.048-2.016.048zm14.085 0c.512-.224.944-.48 1.296-.768s.64-.704.864-1.248c.416-.928.656-2.144.72-3.648.096-1.152.144-2.576.144-4.272 0-2.752-.192-4.752-.576-6-.16-.48-.4-.864-.72-1.152s-.704-.432-1.152-.432c-.256 0-.464.016-.624.048l-.144-.528c2.368-.992 4.336-1.92 5.904-2.784 2.464-1.408 4.064-2.112 4.8-2.112.128 0 .24.048.336.144.128.064.208.16.24.288.096.544.144 1.2.144 1.968.032.768.048 1.52.048 2.256v.624c1.248-.96 2.32-1.744 3.216-2.352.928-.64 1.872-1.168 2.832-1.584.992-.416 1.936-.624 2.832-.624 3.424 0 5.392 1.744 5.904 5.232.128.928.224 2.56.288 4.896v1.056c.064 2.624.16 4.64.288 6.048.16 1.44.448 2.512.864 3.216.256.448.56.816.912 1.104.352.256.784.464 1.296.624l-.048.528-3.36-.048c-1.6-.064-2.896-.096-3.888-.096-1.248 0-3.6.048-7.056.144l-.048-.528c.544-.32.992-.688 1.344-1.104.352-.448.624-1.04.816-1.776.224-.864.368-1.792.432-2.784s.096-2.224.096-3.696c0-1.216-.032-2.272-.096-3.168-.064-.928-.192-1.792-.384-2.592-.192-.896-.576-1.552-1.152-1.968-.544-.416-1.232-.624-2.064-.624-.48 0-.992.112-1.536.336s-1.04.512-1.488.864v5.28c0 4 .16 6.624.48 7.872.16.768.448 1.456.864 2.064s.992 1.04 1.728 1.296l-.048.528-2.88-.048c-2.048-.064-3.584-.096-4.608-.096-1.632 0-3.408.032-5.328.096l-1.44.048zm40.317 11.424c-1.696 0-3.264-.112-4.704-.336-1.408-.224-2.608-.544-3.6-.96-1.024-.448-1.808-.976-2.352-1.584-.544-.576-.816-1.216-.816-1.92 0-1.248.784-2.272 2.352-3.072 1.6-.768 3.84-1.456 6.72-2.064-.768-.16-2.528-.464-5.28-.912l-.096-.576 8.641-4.32c-3.201-.704-5.665-1.696-7.393-2.976-1.984-1.504-2.976-3.392-2.976-5.664 0-1.312.288-2.528.864-3.648s1.376-2.096 2.4-2.928 2.208-1.488 3.552-1.968c1.376-.48 2.768-.72 4.176-.72.672 0 1.328.064 1.968.192.641.096 1.201.24 1.68.432.641-.224 1.217-.56 1.729-1.008.512-.48 1.088-1.088 1.727-1.824.673-.768 1.249-1.328 1.729-1.68.48-.384.992-.576 1.536-.576.672 0 1.248.192 1.727.576.513.352.897.832 1.152 1.44.288.608.432 1.264.432 1.968 0 .768-.24 1.376-.72 1.824-.448.448-1.04.672-1.776.672-.448 0-.991-.048-1.631-.144-.608-.128-.961-.208-1.056-.24-.577-.128-1.216-.24-1.92-.336-.672-.128-1.296-.208-1.872-.24 1.728.704 3.119 1.712 4.175 3.024 1.088 1.312 1.632 2.816 1.632 4.512 0 1.376-.303 2.576-.911 3.6-.576.992-1.409 1.904-2.497 2.736-.832.608-1.76 1.184-2.784 1.728-.992.512-2.24 1.104-3.744 1.776l-1.728.864 2.928.384c3.968.48 6.865 1.264 8.689 2.352.928.544 1.6 1.184 2.016 1.92.448.736.672 1.6.672 2.592 0 1.024-.32 1.952-.96 2.784-.641.864-1.553 1.6-2.736 2.208-1.345.672-2.977 1.184-4.897 1.536-1.888.384-3.903.576-6.048.576zm1.824-16.512c.704-.8 1.249-1.888 1.632-3.264.417-1.408.625-3.008.625-4.8 0-2.016-.336-3.712-1.008-5.088-.64-1.376-1.393-2.368-2.257-2.976-.672.64-1.248 1.632-1.728 2.976-.448 1.344-.672 2.96-.672 4.848 0 2.048.304 3.76.912 5.136.64 1.344 1.472 2.4 2.496 3.168zm-1.104 15.456c1.728-.288 3.121-.8 4.176-1.536 1.056-.704 1.584-1.632 1.584-2.784 0-.96-.4-1.744-1.2-2.352-.511-.384-1.231-.72-2.16-1.008-.896-.288-2.112-.576-3.648-.864l-.672-.096c-1.952 1.12-2.928 2.576-2.928 4.368 0 1.12.416 2.048 1.248 2.784.864.736 2.064 1.232 3.6 1.488z"></path></g></svg>